<?xml version="1.0" encoding="UTF-8" standalone="no"?>
<!DOCTYPE svg PUBLIC "-//W3C//DTD SVG 1.1//EN"
 "http://www.w3.org/Graphics/SVG/1.1/DTD/svg11.dtd">
<!-- Generated by graphviz version 12.1.1 (20240910.0053)
 -->
<!-- Title: INFRA Pages: 1 -->
<svg width="344pt" height="188pt"
 viewBox="0.00 0.00 344.14 188.00" xmlns="http://www.w3.org/2000/svg" xmlns:xlink="http://www.w3.org/1999/xlink">
<g id="graph0" class="graph" transform="scale(1 1) rotate(0) translate(4 184)">
<title>INFRA</title>
<polygon fill="white" stroke="none" points="-4,4 -4,-184 340.14,-184 340.14,4 -4,4"/>
<!-- mlrprdnutlam -->
<g id="node1" class="node">
<title>mlrprdnutlam</title>
<path fill="#b7e0ff" stroke="black" stroke-width="2" d="M251.87,-72C251.87,-72 83.27,-72 83.27,-72 77.27,-72 71.27,-66 71.27,-60 71.27,-60 71.27,-12 71.27,-12 71.27,-6 77.27,0 83.27,0 83.27,0 251.87,0 251.87,0 257.87,0 263.87,-6 263.87,-12 263.87,-12 263.87,-60 263.87,-60 263.87,-66 257.87,-72 251.87,-72"/>
<text text-anchor="middle" x="167.57" y="-40.2" font-family="Arial" font-size="14.00">mlrprdnutlam</text>
<text text-anchor="middle" x="167.57" y="-23.4" font-family="Arial" font-size="14.00">(AWS::Serverless::Function)</text>
</g>
<!-- Api1 -->
<g id="node2" class="node">
<title>Api1</title>
<path fill="#e78f81" stroke="black" stroke-width="2" d="M147.14,-180C147.14,-180 12,-180 12,-180 6,-180 0,-174 0,-168 0,-168 0,-120 0,-120 0,-114 6,-108 12,-108 12,-108 147.14,-108 147.14,-108 153.14,-108 159.14,-114 159.14,-120 159.14,-120 159.14,-168 159.14,-168 159.14,-174 153.14,-180 147.14,-180"/>
<text text-anchor="middle" x="79.57" y="-148.2" font-family="Arial" font-size="14.00">Api1</text>
<text text-anchor="middle" x="79.57" y="-131.4" font-family="Arial" font-size="14.00">(AWS::Serverless::Api)</text>
</g>
<!-- Api1&#45;&gt;mlrprdnutlam -->
<g id="edge1" class="edge">
<title>Api1&#45;&gt;mlrprdnutlam</title>
<path fill="none" stroke="black" d="M108.87,-107.7C116,-99.12 123.7,-89.84 131.11,-80.91"/>
<polygon fill="black" stroke="black" points="133.73,-83.24 137.43,-73.31 128.35,-78.77 133.73,-83.24"/>
</g>
<!-- Api2 -->
<g id="node3" class="node">
<title>Api2</title>
<path fill="#e78f81" stroke="black" stroke-width="2" d="M324.14,-180C324.14,-180 189,-180 189,-180 183,-180 177,-174 177,-168 177,-168 177,-120 177,-120 177,-114 183,-108 189,-108 189,-108 324.14,-108 324.14,-108 330.14,-108 336.14,-114 336.14,-120 336.14,-120 336.14,-168 336.14,-168 336.14,-174 330.14,-180 324.14,-180"/>
<text text-anchor="middle" x="256.57" y="-148.2" font-family="Arial" font-size="14.00">Api2</text>
<text text-anchor="middle" x="256.57" y="-131.4" font-family="Arial" font-size="14.00">(AWS::Serverless::Api)</text>
</g>
<!-- Api2&#45;&gt;mlrprdnutlam -->
<g id="edge2" class="edge">
<title>Api2&#45;&gt;mlrprdnutlam</title>
<path fill="none" stroke="black" d="M226.93,-107.7C219.73,-99.12 211.93,-89.84 204.44,-80.91"/>
<polygon fill="black" stroke="black" points="207.16,-78.71 198.05,-73.3 201.8,-83.21 207.16,-78.71"/>
</g>
</g>
</svg>
